<?xml version="1.0" standalone="no"?>
<!DOCTYPE svg PUBLIC "-//W3C//DTD SVG 20010904//EN"
 "http://www.w3.org/TR/2001/REC-SVG-20010904/DTD/svg10.dtd">
<svg version="1.0" xmlns="http://www.w3.org/2000/svg"
 width="960.000000pt" height="960.000000pt" viewBox="0 0 960.000000 960.000000"
 preserveAspectRatio="xMidYMid meet">

<g transform="translate(0.000000,960.000000) scale(0.100000,-0.100000)"
fill="#000000" stroke="none">
<path d="M4440 9409 c-1086 -88 -2120 -569 -2899 -1348 -639 -640 -1075 -1452
-1255 -2342 -39 -189 -42 -219 -25 -219 6 0 8 9 4 20 -3 11 -3 25 1 32 4 7 9
21 10 33 10 87 44 246 54 260 5 6 11 27 15 47 4 21 11 36 16 33 4 -3 5 10 2
30 -5 34 0 41 30 36 4 0 7 4 7 10 0 6 -7 8 -16 5 -12 -5 -15 -2 -10 10 3 8 6
19 6 24 0 14 33 21 41 8 4 -7 11 -9 15 -6 3 4 -1 15 -11 24 -14 15 -18 15 -26
3 -7 -12 -9 -12 -8 1 1 29 15 54 23 42 4 -7 16 -12 27 -12 10 0 19 -5 19 -11
0 -6 7 -8 16 -5 12 5 14 1 8 -17 -3 -12 -3 -19 0 -16 13 12 85 232 80 241 -3
5 -1 15 5 22 6 7 18 33 26 57 25 72 75 189 112 262 28 56 32 71 22 83 -10 12
-10 15 1 12 14 -3 48 48 49 75 1 9 5 17 9 17 4 0 21 28 37 63 16 34 41 82 55
107 103 175 150 253 187 305 24 33 50 74 59 90 9 17 31 48 48 70 18 22 46 60
64 85 17 25 44 59 59 77 15 17 36 42 47 55 10 12 42 50 70 83 28 33 55 66 61
73 43 54 231 243 325 326 63 55 117 104 120 107 5 6 136 112 207 168 24 18 43
29 43 24 0 -5 -12 -16 -27 -25 -16 -10 -40 -27 -54 -40 -15 -13 -44 -36 -65
-53 -33 -25 -70 -57 -130 -110 -6 -5 -40 -35 -74 -65 -71 -62 -288 -282 -347
-350 -21 -25 -49 -57 -61 -70 -13 -14 -48 -56 -77 -95 -29 -38 -62 -79 -73
-91 -20 -21 -27 -31 -127 -179 -29 -44 -58 -85 -63 -91 -5 -5 -15 -21 -22 -35
-7 -13 -16 -26 -19 -29 -9 -7 -93 -153 -156 -270 -28 -52 -84 -167 -124 -255
-96 -210 -101 -222 -101 -232 0 -4 -6 -20 -14 -34 -20 -38 -110 -323 -150
-474 -58 -220 -114 -543 -131 -758 -2 -23 -7 -150 -10 -282 -17 -599 89 -1203
310 -1765 144 -366 374 -773 605 -1071 147 -188 418 -489 441 -489 5 0 -13 21
-39 47 -131 130 -315 351 -450 540 -256 358 -483 808 -621 1233 -164 504 -244
1118 -212 1630 41 644 184 1192 456 1745 223 455 488 826 840 1180 747 752
1666 1189 2730 1301 215 23 633 23 850 0 751 -78 1423 -318 2040 -729 695
-464 1254 -1125 1601 -1894 194 -429 330 -941 376 -1404 6 -65 13 -117 16
-115 6 6 -17 267 -29 331 -6 33 -6 51 1 53 5 2 10 11 10 20 0 15 -2 15 -10 2
-8 -12 -10 -12 -10 5 0 11 -3 31 -7 44 -4 17 -3 22 5 17 7 -4 12 -17 13 -29 0
-12 3 -16 6 -9 7 19 -6 64 -17 57 -10 -6 -14 1 -24 47 -5 23 -3 26 10 21 14
-5 16 -2 10 20 -12 48 -25 77 -36 77 -5 0 -10 5 -10 10 0 6 15 10 33 11 l32 1
-35 10 c-19 6 -29 13 -22 15 6 3 12 15 12 28 0 13 5 27 10 30 13 8 13 35 0 35
-5 0 -10 -9 -10 -20 0 -25 -19 -27 -21 -2 -1 9 -2 28 -3 42 -1 14 -5 30 -9 37
-4 6 -4 19 0 29 5 13 3 15 -7 9 -10 -6 -11 0 -6 29 6 33 4 38 -13 43 -33 8
-24 23 9 17 19 -4 30 -2 30 5 0 19 32 12 37 -9 4 -16 23 -30 23 -16 0 13 -28
55 -33 49 -4 -3 -7 2 -8 13 0 17 -1 16 -9 -3 -10 -24 -35 -29 -60 -13 -11 7
-6 10 20 10 23 0 30 3 22 9 -11 6 -9 9 6 13 11 3 25 1 30 -4 12 -12 10 5 -2
34 -5 10 -6 23 -3 30 9 28 113 -361 149 -557 65 -360 81 -567 75 -955 -3 -232
-9 -344 -26 -470 -99 -765 -369 -1470 -794 -2076 -694 -990 -1727 -1667 -2897
-1898 -353 -70 -480 -81 -905 -81 -423 0 -531 9 -861 71 -946 177 -1793 632
-2469 1325 -136 139 -333 369 -395 459 -13 19 -27 37 -30 40 -16 13 -166 239
-234 352 -123 205 -257 472 -323 643 -8 22 -19 49 -24 60 -78 179 -190 568
-248 865 -6 31 -9 37 -10 18 -1 -24 18 -115 74 -368 38 -171 166 -537 266
-761 180 -406 476 -862 764 -1179 64 -71 315 -322 380 -381 452 -407 1074
-765 1650 -950 536 -173 988 -237 1575 -226 483 10 891 79 1340 226 1652 545
2867 1964 3144 3671 43 267 56 438 56 750 0 391 -31 681 -110 1032 -234 1036
-828 1971 -1670 2626 -58 45 -109 85 -115 90 -102 80 -349 236 -534 337 -154
84 -436 215 -461 214 -8 0 5 -9 30 -20 117 -52 180 -82 176 -86 -2 -2 -38 12
-80 31 -42 20 -79 36 -81 36 -3 0 -24 9 -48 20 -45 21 -203 79 -302 111 -343
112 -691 183 -1045 214 -179 16 -623 18 -800 4z m482 -86 c-51 -2 -132 -2
-180 0 -48 1 -6 3 93 3 99 0 138 -2 87 -3z m-389 -10 c-7 -2 -21 -2 -30 0 -10
3 -4 5 12 5 17 0 24 -2 18 -5z m-296 -29 c-3 -3 -12 -4 -19 -1 -8 3 -5 6 6 6
11 1 17 -2 13 -5z m-590 -120 c-3 -3 -12 -4 -19 -1 -8 3 -5 6 6 6 11 1 17 -2
13 -5z m3208 -202 c-3 -3 -11 0 -18 7 -9 10 -8 11 6 5 10 -3 15 -9 12 -12z
m-3785 4 c0 -2 -7 -7 -16 -10 -8 -3 -12 -2 -9 4 6 10 25 14 25 6z m-105 -46
c-3 -5 -12 -10 -18 -10 -7 0 -6 4 3 10 19 12 23 12 15 0z m4040 -30 c3 -6 -1
-7 -9 -4 -18 7 -21 14 -7 14 6 0 13 -4 16 -10z m-4135 -14 c0 -2 -7 -7 -16
-10 -8 -3 -12 -2 -9 4 6 10 25 14 25 6z m4230 -42 c0 -2 -9 0 -20 6 -11 6 -20
13 -20 16 0 2 9 0 20 -6 11 -6 20 -13 20 -16z m-4380 -39 c-14 -8 -29 -14 -35
-14 -5 0 1 6 15 14 14 8 30 14 35 14 6 0 -1 -6 -15 -14z m-65 -35 c-3 -5 -12
-10 -18 -10 -7 0 -6 4 3 10 19 12 23 12 15 0z m-75 -40 c-35 -24 -54 -31 -30
-11 14 11 30 21 35 21 6 0 3 -5 -5 -10z m-90 -54 c0 -3 -4 -8 -10 -11 -5 -3
-10 -1 -10 4 0 6 5 11 10 11 6 0 10 -2 10 -4z m-30 -20 c0 -2 -17 -14 -37 -25
l-38 -21 30 25 c28 23 45 31 45 21z m-81 -49 c-2 -1 -13 -9 -24 -17 -19 -14
-19 -14 -6 3 7 9 18 17 24 17 6 0 8 -1 6 -3z m-54 -36 c-15 -13 -118 -86 -135
-96 -27 -15 3 11 69 59 56 41 92 61 66 37z m6704 -1836 c0 -5 -6 1 -14 15 -8
14 -14 30 -14 35 0 6 6 -1 14 -15 8 -14 14 -29 14 -35z m34 -96 c-8 -28 -12
-23 -11 12 1 17 4 25 8 18 4 -6 5 -20 3 -30z m-8436 -16 c-3 -10 -5 -4 -5 12
0 17 2 24 5 18 2 -7 2 -21 0 -30z m8493 -83 c0 -5 -2 -10 -4 -10 -3 0 -8 5
-11 10 -3 6 -1 10 4 10 6 0 11 -4 11 -10z m71 -192 c10 -26 18 -55 18 -65 -1
-17 -2 -17 -6 0 -5 19 -18 22 -28 7 -4 -6 -11 -7 -17 -4 -7 5 -5 11 6 20 14
10 15 18 7 46 l-9 33 -1 -30 c-1 -26 -3 -28 -12 -12 -8 13 -7 22 1 32 9 11 7
27 -9 70 -12 31 -21 61 -21 68 0 7 12 -17 26 -53 14 -36 34 -86 45 -112z
m-8614 120 c-3 -8 -6 -5 -6 6 -1 11 2 17 5 13 3 -3 4 -12 1 -19z m-42 -48 c3
-5 1 -10 -4 -10 -6 0 -11 5 -11 10 0 6 2 10 4 10 3 0 8 -4 11 -10z m8605 -18
c0 -15 -2 -15 -10 -2 -13 20 -13 33 0 25 6 -3 10 -14 10 -23z m-8563 -34 c-3
-7 -5 -2 -5 12 0 14 2 19 5 13 2 -7 2 -19 0 -25z m8550 -30 c-3 -7 -5 -2 -5
12 0 14 2 19 5 13 2 -7 2 -19 0 -25z m-8652 -42 c-7 -45 -35 -87 -35 -52 0 10
4 15 9 12 5 -3 12 17 15 45 4 28 9 49 12 46 3 -3 2 -26 -1 -51z m8635 0 c0
-18 -17 8 -24 34 l-7 25 15 -25 c9 -14 15 -29 16 -34z m20 -36 c0 -5 -2 -10
-4 -10 -3 0 -8 5 -11 10 -3 6 -1 10 4 10 6 0 11 -4 11 -10z m90 -6 c0 -8 -19
-13 -24 -6 -3 5 1 9 9 9 8 0 15 -2 15 -3z m-8721 -108 c1 -54 -9 -19 -14 45
-4 55 -3 58 5 24 5 -22 9 -53 9 -69z m20 45 c1 -35 -5 -22 -12 24 -5 28 -4 34
3 20 5 -11 9 -31 9 -44z m21 49 c0 -5 -2 -10 -4 -10 -3 0 -8 5 -11 10 -3 6 -1
10 4 10 6 0 11 -4 11 -10z m-74 -50 c-4 -25 -2 -40 4 -40 5 0 10 -9 10 -20 0
-11 -4 -20 -10 -20 -5 0 -10 5 -10 10 0 6 -12 23 -27 37 -26 24 -26 25 -5 19
19 -6 23 -3 28 23 9 46 18 38 10 -9z m-29 8 c-3 -8 -6 -5 -6 6 -1 11 2 17 5
13 3 -3 4 -12 1 -19z m8750 -310 c-3 -8 -6 -5 -6 6 -1 11 2 17 5 13 3 -3 4
-12 1 -19z"/>
<path d="M6427 9159 c7 -7 15 -10 18 -7 3 3 -2 9 -12 12 -14 6 -15 5 -6 -5z"/>
<path d="M6470 9140 c8 -5 20 -10 25 -10 6 0 3 5 -5 10 -8 5 -19 10 -25 10 -5
0 -3 -5 5 -10z"/>
<path d="M5085 9075 c-22 -8 -52 -15 -68 -15 -20 0 -33 -9 -48 -32 l-20 -33 6
40 7 40 -21 -33 c-12 -18 -21 -36 -21 -41 0 -5 -24 -65 -54 -133 -64 -143
-156 -365 -156 -374 0 -3 5 -2 10 1 18 11 11 -21 -8 -38 -23 -21 -32 -21 -32
-1 0 8 -38 95 -84 192 -46 97 -110 231 -141 297 -31 66 -62 123 -68 127 -19
12 -29 9 -34 -12 -4 -16 -14 -20 -45 -20 -22 0 -47 4 -56 9 -32 16 -92 21 -92
7 0 -7 17 -17 38 -22 28 -7 41 -17 54 -44 16 -31 18 -70 18 -357 0 -280 2
-323 15 -323 26 0 16 -18 -16 -29 -18 -6 -47 -11 -66 -11 -23 0 -33 -4 -30
-12 3 -10 37 -13 123 -13 138 0 154 2 154 21 0 10 -10 14 -29 12 -36 -3 -67
23 -75 62 -9 48 -8 504 1 507 10 4 19 -14 103 -192 29 -60 79 -165 111 -233
33 -68 59 -127 59 -131 0 -4 9 -16 20 -26 26 -24 33 -16 70 71 15 38 45 107
65 154 20 47 42 101 50 121 7 19 22 55 33 80 11 24 32 72 47 107 49 110 54 91
56 -231 1 -136 5 -247 10 -247 5 0 9 -4 9 -9 0 -13 -57 -31 -99 -31 -33 -1
-34 -2 -18 -15 15 -11 52 -13 173 -10 85 3 159 7 164 10 19 12 10 25 -18 25
-40 0 -70 25 -82 68 -6 22 -10 165 -10 349 0 334 1 343 51 343 28 0 61 19 54
31 -9 13 -64 10 -110 -6z m-160 -144 c-22 -44 -26 -38 -7 10 9 23 18 37 20 31
2 -6 -4 -24 -13 -41z m-134 -294 c-10 -9 -11 -8 -5 6 3 10 9 15 12 12 3 -3 0
-11 -7 -18z"/>
<path d="M4998 9073 c6 -2 18 -2 25 0 6 3 1 5 -13 5 -14 0 -19 -2 -12 -5z"/>
<path d="M5646 8995 c5 -11 0 -15 -17 -15 -41 0 -101 -42 -143 -100 l-18 -25
5 27 c5 34 -8 27 -29 -14 -24 -47 -14 -147 19 -197 14 -22 76 -87 136 -147
127 -124 157 -171 146 -236 -7 -39 -6 -41 9 -29 25 21 19 -4 -10 -38 -33 -40
-148 -72 -141 -39 1 6 -14 16 -33 22 -54 17 -104 50 -135 90 -21 28 -28 51
-34 107 -3 44 -11 74 -18 77 -7 2 -13 -3 -13 -12 0 -9 -4 -16 -9 -16 -5 0 -17
-35 -26 -77 -9 -43 -21 -95 -27 -116 -14 -48 1 -70 30 -44 10 9 22 17 27 17 5
0 50 -21 100 -46 82 -41 99 -46 166 -47 65 -2 80 2 128 28 99 55 138 151 106
262 -15 53 -27 68 -143 183 -147 146 -172 179 -172 229 0 41 4 48 44 79 45 34
111 30 172 -10 59 -41 84 -87 92 -175 5 -51 11 -69 23 -71 13 -2 21 17 38 95
12 54 27 115 33 136 17 55 -3 69 -30 23 -21 -35 -57 -52 -46 -22 4 9 -10 26
-38 47 -55 40 -91 55 -150 63 -40 6 -47 4 -42 -9z m-279 -627 c-3 -8 -6 -5 -6
6 -1 11 2 17 5 13 3 -3 4 -12 1 -19z"/>
<path d="M3832 8961 c-8 -5 -13 -11 -13 -15 3 -20 -4 -24 -51 -30 -60 -8 -177
-38 -258 -68 -79 -29 -116 -37 -194 -44 -74 -6 -78 -21 -6 -26 40 -3 47 -7 62
-39 10 -19 34 -98 54 -175 19 -76 39 -152 44 -169 25 -88 70 -279 70 -296 0
-10 5 -19 12 -19 7 0 -3 -11 -22 -25 -19 -14 -42 -25 -52 -25 -10 0 -18 -7
-18 -16 0 -12 6 -15 23 -10 42 12 192 53 311 85 65 18 126 36 135 40 9 5 35
12 58 16 72 11 80 26 86 138 4 92 -5 131 -20 90 -4 -10 -9 -20 -12 -23 -9 -7
-31 -74 -31 -91 1 -8 7 -3 16 11 9 14 13 17 10 7 -4 -11 -9 -30 -12 -43 -4
-15 -21 -32 -43 -43 -39 -20 -229 -81 -253 -81 -33 0 -62 51 -91 158 -46 172
-46 177 -37 186 15 15 194 56 219 50 27 -6 57 -36 66 -65 4 -11 10 -19 14 -19
14 0 33 29 26 40 -3 5 -19 59 -34 120 -15 60 -30 113 -35 117 -11 12 -28 -25
-32 -69 -2 -36 -1 -38 11 -21 13 16 14 16 15 2 0 -40 -71 -73 -220 -104 -44
-9 -58 15 -95 159 -19 75 -35 140 -35 145 0 4 25 14 56 20 32 7 82 22 112 32
56 19 107 24 137 13 8 -4 30 -27 47 -51 26 -38 32 -43 44 -31 12 12 10 25 -12
88 -29 85 -34 92 -52 81z"/>
<path d="M6570 8710 c0 -5 -7 -7 -15 -4 -26 10 -16 -8 22 -41 37 -32 37 -32
25 -73 -7 -23 -63 -142 -124 -264 -61 -123 -120 -241 -131 -263 l-20 -40 22
19 c11 11 21 27 21 36 0 9 4 20 9 26 5 5 42 74 81 154 39 80 76 152 81 160 5
8 23 45 40 83 32 67 60 96 34 35 -20 -47 -258 -519 -275 -545 -19 -29 -63 -30
-92 -3 -23 21 -44 27 -32 9 4 -8 0 -9 -15 -4 -37 11 -14 -22 27 -39 20 -9 84
-41 141 -71 58 -30 110 -55 118 -55 22 0 15 29 -12 46 -40 26 -47 47 -31 91
15 43 103 224 115 236 4 4 26 -6 48 -22 137 -99 241 -105 339 -19 49 43 74
100 74 168 0 98 -41 158 -160 235 -85 55 -290 158 -290 145z m229 -180 c83
-42 106 -115 71 -220 -12 -34 -19 -64 -17 -67 3 -2 14 11 26 29 19 29 21 30
16 8 -17 -66 -74 -111 -147 -116 -32 -3 -46 -1 -35 4 15 6 8 12 -35 30 -29 12
-65 32 -80 45 l-27 22 75 143 c83 156 85 157 153 122z"/>
<path d="M2990 8661 c0 -14 -23 -30 -85 -61 -47 -24 -107 -60 -133 -81 -26
-22 -62 -44 -81 -50 -43 -14 -91 -42 -157 -90 -36 -26 -58 -36 -73 -32 -31 8
-27 -15 14 -98 44 -87 61 -86 57 2 -3 61 -2 66 29 97 33 34 98 72 121 72 7 0
25 -22 39 -48 14 -26 70 -126 124 -222 172 -306 181 -324 170 -357 -6 -15 -20
-32 -33 -38 -23 -10 -31 -35 -11 -35 7 0 49 23 95 50 46 28 85 50 88 50 17 0
106 64 106 76 0 18 -24 18 -40 -1 -30 -36 -77 -2 -136 98 -19 32 -34 61 -34
64 0 3 -24 46 -53 97 -103 175 -187 328 -187 339 0 23 93 70 146 75 46 4 54 1
86 -27 65 -57 77 -33 26 51 -51 86 -78 110 -78 69z"/>
<path d="M7298 8273 c-24 -6 -23 -15 8 -44 22 -20 25 -30 21 -66 -4 -36 -3
-40 10 -27 8 8 16 14 19 14 15 0 -9 -35 -103 -152 -59 -73 -136 -169 -171
-213 -131 -163 -167 -194 -201 -175 -12 6 -21 13 -21 16 0 3 6 2 13 -2 6 -4 4
1 -5 12 -20 20 -78 28 -78 11 1 -7 20 -28 44 -47 24 -19 122 -104 220 -188 97
-84 185 -157 195 -164 15 -9 33 -1 109 52 51 35 92 69 92 76 0 18 -15 18 -32
0 -18 -17 -74 -46 -111 -57 -23 -7 -27 -6 -18 5 9 11 6 15 -15 20 -58 15 -230
152 -240 191 -3 13 -1 33 6 45 14 26 318 400 368 453 41 42 64 46 107 17 34
-23 65 -26 65 -7 0 10 -253 239 -262 236 -2 -1 -11 -3 -20 -6z"/>
<path d="M2186 8151 c6 -36 4 -41 -22 -54 -16 -8 -52 -22 -81 -31 -37 -12 -64
-31 -98 -67 -31 -33 -44 -42 -40 -28 13 39 -13 11 -35 -38 -43 -98 -14 -201
73 -260 71 -47 116 -51 282 -19 77 14 157 26 178 26 52 0 105 -26 122 -61 18
-34 19 -92 4 -122 l-12 -22 23 20 24 20 -22 -32 c-46 -65 -126 -115 -209 -128
-36 -6 -37 -5 -19 9 18 14 18 16 3 16 -21 0 -94 36 -119 57 -16 14 -58 10 -58
-5 0 -4 34 -47 75 -97 77 -93 108 -110 113 -65 2 19 18 33 65 59 170 94 226
158 235 267 9 108 -72 214 -174 230 -51 7 -69 -1 -33 -15 13 -5 17 -10 9 -11
-29 -2 -146 -20 -225 -35 -91 -17 -199 -20 -175 -5 8 5 12 10 10 12 -3 2 -21
12 -40 22 -48 27 -59 44 -60 92 0 88 73 149 181 149 59 0 72 -4 112 -32 45
-33 87 -43 87 -22 0 6 -28 45 -62 87 -111 138 -122 146 -112 83z"/>
<path d="M2160 8163 c0 -12 5 -25 10 -28 13 -8 13 15 0 35 -8 12 -10 11 -10
-7z"/>
<path d="M4472 8009 c-115 -11 -346 -54 -477 -89 -645 -171 -1232 -546 -1657
-1060 -95 -115 -106 -129 -204 -275 -245 -364 -425 -816 -493 -1238 -10 -59
-15 -110 -12 -113 5 -5 10 17 41 201 6 39 18 84 26 102 8 17 15 43 16 57 1 14
6 26 10 26 4 0 8 15 8 34 0 19 5 38 11 42 8 4 9 0 4 -15 -3 -11 -3 -21 2 -21
4 0 8 25 9 55 1 91 25 92 26 1 1 -46 4 -56 17 -54 9 2 19 8 23 13 5 6 8 5 8
-3 0 -7 4 -11 9 -7 5 3 8 24 6 46 -4 33 -2 40 10 35 11 -4 13 2 10 27 -4 26
-3 27 3 7 7 -21 10 -16 22 35 8 33 18 63 23 66 5 4 9 23 10 43 1 24 4 32 10
23 6 -8 7 -4 4 10 -3 13 0 21 6 20 5 -1 18 18 27 43 25 67 148 306 192 373 21
32 38 61 38 63 0 7 81 123 135 195 43 57 56 73 115 144 19 23 47 57 62 75 16
19 28 30 28 24 0 -8 -29 -46 -74 -96 -8 -9 -38 -47 -67 -85 -30 -37 -56 -70
-59 -73 -17 -16 -99 -142 -151 -230 -17 -30 -34 -57 -38 -60 -14 -11 -133
-254 -179 -365 -283 -681 -309 -1474 -72 -2184 235 -703 730 -1297 1401 -1683
493 -284 1045 -423 1604 -404 448 14 854 113 1239 301 333 162 595 353 866
631 438 449 731 1034 830 1659 46 285 51 567 17 965 -1 15 3 24 11 23 6 -2 12
4 12 12 0 9 -6 12 -15 9 -9 -4 -15 0 -15 10 0 9 7 16 15 16 17 0 19 9 5 30 -6
10 -10 11 -10 3 0 -7 -4 -13 -10 -13 -5 0 -10 7 -10 15 0 8 4 15 8 15 16 0 5
73 -13 86 -10 8 -14 14 -7 14 7 0 9 10 6 28 -4 19 0 34 10 45 21 21 20 29 -9
63 -14 16 -29 33 -33 38 -4 5 -6 25 -4 43 3 24 9 33 23 33 10 0 19 4 19 9 0 5
8 12 18 16 14 5 15 4 5 -6 -7 -7 -13 -21 -13 -30 0 -12 -6 -16 -20 -12 -11 3
-20 0 -20 -6 0 -6 7 -11 16 -11 10 0 14 -5 10 -16 -3 -8 -2 -13 3 -9 5 3 12
19 16 35 4 17 11 30 16 30 12 0 12 37 -1 45 -5 3 -10 17 -10 31 0 17 -4 23
-12 18 -7 -4 -8 -3 -4 5 11 18 21 6 35 -41 7 -24 19 -61 26 -83 28 -83 86
-349 105 -482 30 -207 38 -565 16 -763 -39 -362 -114 -650 -253 -975 -406
-952 -1266 -1662 -2273 -1879 -259 -56 -404 -70 -695 -70 -227 0 -293 4 -415
22 -361 55 -622 131 -910 263 -494 226 -920 568 -1242 998 -48 64 -91 121 -95
126 -69 90 -224 370 -303 549 -42 95 -130 338 -145 402 -3 10 -16 60 -29 111
-14 50 -34 138 -45 195 -10 57 -19 92 -20 78 -3 -69 77 -404 139 -585 210
-608 583 -1123 1113 -1533 342 -265 786 -473 1230 -576 255 -59 433 -79 727
-79 280 -1 414 12 665 64 887 182 1658 731 2131 1515 256 424 410 902 455
1406 17 192 6 576 -21 753 -78 515 -251 959 -538 1380 -117 171 -214 287 -382
455 -207 208 -384 348 -625 495 -157 96 -495 257 -495 237 0 -5 16 -14 36 -21
19 -7 33 -15 31 -18 -3 -2 -22 3 -43 12 -219 95 -592 186 -873 215 -118 11
-555 11 -679 -1z m181 -116 c-7 -2 -21 -2 -30 0 -10 3 -4 5 12 5 17 0 24 -2
18 -5z m-100 -10 c-7 -2 -19 -2 -25 0 -7 3 -2 5 12 5 14 0 19 -2 13 -5z m574
1 c-3 -3 -12 -4 -19 -1 -8 3 -5 6 6 6 11 1 17 -2 13 -5z m-820 -30 c-3 -3 -12
-4 -19 -1 -8 3 -5 6 6 6 11 1 17 -2 13 -5z m-50 -10 c-3 -3 -12 -4 -19 -1 -8
3 -5 6 6 6 11 1 17 -2 13 -5z m-104 -21 c-7 -2 -19 -2 -25 0 -7 3 -2 5 12 5
14 0 19 -2 13 -5z m1967 -58 c16 -9 19 -14 9 -15 -8 0 -24 7 -35 15 -24 18 -7
19 26 0z m50 -25 c0 -5 -2 -10 -4 -10 -3 0 -8 5 -11 10 -3 6 -1 10 4 10 6 0
11 -4 11 -10z m40 -20 c8 -5 11 -10 5 -10 -5 0 -17 5 -25 10 -8 5 -10 10 -5
10 6 0 17 -5 25 -10z m89 -46 c14 -12 -19 -1 -35 12 -18 14 -18 14 6 3 14 -6
27 -13 29 -15z m-2703 -29 c-11 -8 -25 -15 -30 -15 -6 1 0 7 14 15 32 19 40
18 16 0z m-71 -35 c-3 -5 -12 -10 -18 -10 -7 0 -6 4 3 10 19 12 23 12 15 0z
m-70 -33 c-26 -17 -75 -38 -75 -32 0 6 72 44 85 45 5 0 1 -6 -10 -13z m-99
-52 c-11 -8 -25 -15 -30 -15 -6 1 0 7 14 15 32 19 40 18 16 0z m-131 -73 c-15
-13 -91 -57 -83 -48 13 15 73 55 83 56 5 0 5 -3 0 -8z m-125 -76 c0 -2 -24
-21 -52 -42 -158 -114 -285 -222 -415 -352 -46 -46 -83 -80 -83 -75 0 9 175
183 236 233 98 83 302 239 312 240 1 0 2 -2 2 -4z m1700 -502 c0 -12 137 -14
1005 -14 885 0 1005 -2 1005 -15 0 -13 -233 -15 -2005 -17 -1103 -2 -2010 -1
-2015 0 -6 2 -10 10 -10 18 0 12 143 14 994 14 l994 0 5 21 c6 23 27 17 27 -7z
m-80 -173 c0 -6 -16 -44 -35 -87 -19 -42 -35 -80 -35 -85 0 -5 485 -9 1077 -9
592 0 1078 -2 1081 -4 24 -24 -105 -26 -2004 -26 l-1994 0 0 -22 c0 -21 -1
-21 -15 6 -8 15 -15 32 -15 37 0 5 390 9 914 9 l915 0 45 95 c24 52 50 95 55
95 6 0 11 -4 11 -9z m-150 -328 c0 -4 -16 -42 -37 -85 -20 -43 -34 -81 -30
-84 3 -3 525 -8 1160 -11 928 -5 1154 -9 1150 -19 -4 -10 -395 -13 -1991 -13
-1093 0 -1993 0 -1999 -1 -8 0 -13 -14 -13 -32 -1 -33 -1 -33 -16 10 -9 24
-14 46 -11 48 2 2 379 5 838 7 l834 2 45 93 c24 50 50 92 57 92 7 0 13 -3 13
-7z m3159 -203 c0 -10 -3 -8 -9 5 -12 27 -12 43 0 25 5 -8 9 -22 9 -30z m19
-61 c-3 -8 -7 -3 -11 10 -4 17 -3 21 5 13 5 -5 8 -16 6 -23z m-5841 -61 c-3
-8 -6 -5 -6 6 -1 11 2 17 5 13 3 -3 4 -12 1 -19z m2485 -64 c-16 -33 -33 -69
-36 -81 l-7 -23 1234 0 c1228 0 1235 0 1230 -20 -5 -20 -17 -20 -1992 -20
-1092 0 -1992 0 -1998 0 -8 0 -13 -13 -13 -30 0 -16 -4 -30 -10 -30 -5 0 -10
8 -10 19 0 10 -3 33 -6 50 l-6 31 768 0 769 0 24 60 c33 83 60 125 72 113 7
-7 1 -30 -19 -69z m3408 32 c0 -5 -7 -1 -15 10 -8 10 -14 24 -14 29 0 6 6 1
14 -9 8 -11 15 -24 15 -30z m-5870 -16 c0 -5 -2 -10 -4 -10 -3 0 -8 5 -11 10
-3 6 -1 10 4 10 6 0 11 -4 11 -10z m5887 -52 c-3 -8 -6 -5 -6 6 -1 11 2 17 5
13 3 -3 4 -12 1 -19z m30 -77 c-3 -10 -5 -8 -6 5 0 12 -9 25 -18 28 -15 6 -15
8 -3 16 17 10 34 -22 27 -49z m-6037 -11 c-6 -23 -14 -39 -17 -36 -4 3 0 24 7
46 17 52 25 45 10 -10z m6000 5 c0 -16 -6 -25 -15 -25 -18 0 -19 4 -3 30 16
26 18 25 18 -5z m-5951 -37 c0 -16 -2 -18 -6 -8 -3 8 -11 18 -17 22 -7 5 -4 8
7 8 11 0 17 -7 16 -22z m4939 -43 c-6 -7 -3970 -7 -3976 0 -3 3 892 5 1988 5
1096 0 1991 -2 1988 -5z m-2528 -54 c0 -5 -16 -43 -35 -85 -19 -43 -35 -79
-35 -81 0 -3 255 -5 568 -4 483 0 570 2 590 15 20 13 23 13 28 -1 5 -13 88
-15 721 -15 567 0 714 -3 711 -12 -4 -10 -417 -14 -2003 -18 -1586 -4 -1999
-8 -2003 -17 -2 -8 5 -13 18 -13 12 0 18 -4 15 -10 -3 -5 -1 -10 4 -10 6 0 11
3 11 8 0 4 299 7 665 7 366 0 665 -3 665 -7 0 -5 23 -8 50 -8 28 0 50 5 50 10
0 7 183 10 530 10 417 0 530 -3 530 -12 0 -9 4 -8 10 2 9 13 11 13 20 0 6 -9
13 -11 18 -5 9 13 1415 7 1407 -6 -7 -11 -3995 -12 -4010 -1 -5 4 -11 24 -13
45 l-4 37 691 0 691 0 30 68 c17 37 38 77 46 90 14 22 34 30 34 13z m1050 -11
c0 -5 -2 -10 -4 -10 -3 0 -8 5 -11 10 -3 6 -1 10 4 10 6 0 11 -4 11 -10z m34
-90 c-6 -5 -24 21 -24 34 0 6 6 1 14 -10 8 -10 12 -21 10 -24z m2486 -51 c0
-5 -4 -9 -10 -9 -5 0 -10 7 -10 16 0 8 5 12 10 9 6 -3 10 -10 10 -16z m-1035
-69 c-3 -5 -14 -10 -23 -9 -14 0 -13 2 3 9 27 11 27 11 20 0z m-2675 -79 c0
-5 -16 -44 -36 -86 -19 -43 -34 -79 -32 -80 10 -10 37 29 63 90 l31 70 217 3
c152 2 224 -1 240 -9 31 -17 87 -29 87 -18 0 5 -15 13 -32 18 -25 6 -9 8 62 6
52 -2 104 -6 114 -11 12 -5 17 -4 13 3 -4 7 94 11 298 12 l304 2 20 -40 c12
-22 21 -47 21 -56 0 -8 4 -15 9 -15 5 0 12 -13 16 -30 5 -24 12 -30 33 -30 15
0 302 0 639 0 336 0 614 -3 617 -8 19 -31 -6 -32 -835 -30 -669 2 -830 6 -854
17 -27 12 -28 14 -11 20 16 6 14 10 -19 30 -117 68 -304 97 -445 67 -78 -16
-224 -81 -215 -95 2 -5 -9 -14 -26 -21 -16 -7 -53 -37 -81 -67 l-52 -53 -745
2 -746 3 -2 68 -2 67 617 0 616 -1 34 68 c19 37 40 78 48 91 15 22 34 30 34
13z m3707 -23 c-3 -8 -6 -5 -6 6 -1 11 2 17 5 13 3 -3 4 -12 1 -19z m-1029
-240 l-3 -43 -756 -3 -756 -2 -45 45 -45 45 804 0 804 0 -3 -42z m-2558 -88
c0 -3 -8 -18 -18 -35 -21 -34 -50 -113 -51 -135 0 -8 -6 -32 -13 -52 l-13 -38
-687 0 -688 0 0 45 0 45 538 0 537 0 41 88 41 87 156 0 c86 0 157 -2 157 -5z
m1416 -82 l39 -83 555 -5 555 -5 -3 -30 c-1 -16 -5 -36 -7 -42 -3 -10 -152
-13 -697 -13 -419 0 -699 4 -708 10 -8 5 -15 13 -15 17 -1 4 -6 18 -13 31 -14
25 -9 42 14 42 10 0 9 5 -6 20 -11 11 -20 29 -20 39 0 21 -29 82 -45 93 -5 4
62 8 151 8 l160 0 40 -82z m-1839 -238 c-3 -11 -1 -18 4 -14 5 3 9 12 9 20 0
12 27 14 154 14 l154 0 7 -82 c4 -46 12 -86 18 -90 5 -3 11 -21 12 -40 1 -18
5 -45 9 -61 l8 -27 -708 2 -709 3 -3 63 -3 62 453 0 c249 0 460 0 469 0 10 0
29 30 54 85 29 65 42 85 57 85 15 0 19 -5 15 -20z m1977 -56 c20 -41 36 -79
36 -85 0 -5 12 -9 28 -9 15 -1 230 -1 477 -1 248 0 459 -4 470 -9 11 -5 15 -9
8 -9 -7 -1 -13 -22 -15 -53 l-3 -53 -720 -2 c-396 -1 -728 -4 -737 -7 -23 -5
-23 -4 7 85 14 41 28 107 32 147 l6 72 187 0 187 0 37 -76z m-1538 -316 c26
-35 53 -66 60 -71 7 -4 20 -14 28 -22 8 -8 17 -15 20 -15 4 0 34 -19 67 -42
34 -23 89 -52 123 -65 l61 -24 -55 6 c-30 2 -445 5 -922 5 l-868 0 0 55 0 55
388 0 389 0 41 89 41 89 290 2 289 1 48 -63z m1704 -28 l44 -90 410 0 c319 0
407 -3 398 -12 -7 -7 -12 -31 -12 -55 l0 -42 -902 -5 c-497 -2 -928 -7 -958
-10 l-55 -6 55 18 c137 46 258 134 331 241 l34 50 305 1 306 0 44 -90z m-1065
-230 c23 -6 288 -11 610 -12 l570 -3 39 -82 c26 -55 46 -83 60 -87 12 -3 162
-6 335 -6 252 0 311 -2 303 -13 -6 -7 -12 -33 -14 -57 l-3 -45 -2010 0 -2010
0 -3 60 -3 60 311 -3 310 -3 40 81 c21 45 40 86 42 91 2 6 217 10 578 10 316
1 616 4 665 8 133 11 136 11 180 1z m1377 -427 l43 -88 255 -5 c140 -3 249 -9
243 -13 -7 -5 -13 -26 -13 -48 l0 -39 -1837 0 c-1011 0 -1918 -1 -2016 -3
l-177 -2 0 53 0 52 234 0 233 0 42 90 42 90 1454 0 1455 0 42 -87z m148 -314
c24 -56 42 -83 58 -90 13 -5 96 -9 185 -9 125 0 158 -3 149 -12 -7 -7 -12 -29
-12 -50 l0 -38 -42 0 c-112 0 -3890 -1 -3935 0 l-53 0 0 50 0 50 149 0 c145 0
181 4 181 20 0 4 16 42 35 84 l36 76 1607 0 1607 0 35 -81z m154 -324 l39 -85
97 0 c98 0 117 -4 101 -24 -5 -6 -11 -27 -13 -46 l-3 -35 -2012 -3 -2013 -2 0
55 0 55 88 0 87 1 34 77 c19 42 40 82 46 87 8 7 606 9 1761 7 l1749 -2 39 -85z
m-2586 -397 c-10 -15 -37 -29 -79 -41 -75 -20 -123 -19 -127 4 -2 12 13 18 70
28 40 8 80 17 88 22 8 5 26 9 39 9 22 0 23 -1 9 -22z m576 12 c14 -5 30 -19
37 -31 10 -20 9 -21 -7 -14 -30 11 -138 18 -179 11 -82 -16 -148 -115 -111
-168 l16 -22 0 22 c0 13 4 20 10 17 6 -3 10 -15 10 -25 0 -28 41 -65 75 -70
100 -12 147 9 161 74 3 17 12 39 19 49 11 16 13 16 19 2 3 -9 6 -30 6 -46 0
-34 20 -30 21 4 0 21 1 21 9 2 5 -12 9 -15 9 -5 1 10 4 11 12 3 18 -18 6 -122
-21 -176 -25 -49 -89 -106 -146 -127 -16 -7 -56 -16 -89 -21 -33 -5 -72 -12
-87 -15 -25 -5 -28 -3 -28 20 0 22 5 25 48 31 114 16 165 41 212 106 29 40 39
79 21 79 -5 0 -28 -7 -51 -15 -99 -35 -180 -13 -250 68 -30 34 -32 42 -28 91
9 106 87 166 215 166 39 0 83 -4 97 -10z m562 -6 c19 -9 31 -20 28 -25 -3 -5
0 -9 7 -9 7 0 10 -2 8 -5 -3 -2 -21 0 -40 6 -19 5 -62 10 -97 10 -50 0 -72 -5
-107 -25 -51 -30 -57 -38 -64 -85 -6 -33 -7 -34 -24 -16 -35 35 1 106 73 143
55 27 164 31 216 6z m624 3 c0 -32 -24 -37 -173 -37 l-148 0 2 -86 2 -86 36 8
c71 16 182 9 234 -16 26 -12 47 -25 48 -29 0 -3 3 -15 5 -26 11 -45 16 -115
10 -140 -9 -35 -60 -81 -112 -101 -84 -32 -212 0 -293 74 -33 31 27 96 73 79
10 -4 16 -18 16 -35 0 -33 18 -51 77 -76 85 -37 154 6 167 104 6 48 5 55 -20
81 -45 47 -200 63 -268 27 -18 -10 -19 -7 -11 88 5 55 8 116 7 136 l-2 38 163
3 c89 1 168 4 175 5 6 1 12 -4 12 -11z m-600 -132 c0 -8 5 -15 10 -15 7 0 7
-4 0 -12 -43 -51 -51 -64 -48 -83 2 -15 12 -21 41 -23 33 -3 41 -8 53 -37 19
-46 18 -111 -3 -145 -9 -15 -35 -39 -57 -52 -58 -33 -182 -32 -241 1 -96 54
-106 63 -101 100 6 38 34 72 89 107 43 28 46 46 12 76 -51 45 8 56 114 22 51
-16 54 -15 87 37 25 40 44 50 44 24z m-1215 -40 c6 -27 8 -28 19 -12 12 15 14
10 20 -35 3 -29 6 -91 6 -138 0 -47 4 -91 9 -98 4 -7 35 -16 69 -20 54 -6 59
-9 48 -24 -10 -13 -37 -17 -169 -20 l-157 -3 0 23 c0 19 5 22 43 22 23 0 47 4
53 8 7 4 14 68 18 162 4 91 12 160 19 168 6 8 12 10 13 6 1 -5 5 -22 9 -39z"/>
<path d="M4248 5403 c50 -2 134 -2 185 0 50 1 9 3 -93 3 -102 0 -143 -2 -92
-3z"/>
<path d="M4550 5400 c10 -6 -56 -10 -195 -12 -180 -3 -172 -3 60 -4 149 0 243
1 210 3 -41 3 -55 7 -45 13 11 7 7 10 -15 10 -23 0 -26 -3 -15 -10z"/>
<path d="M4745 5399 c-32 -5 -24 -6 39 -8 44 0 77 1 75 3 -10 8 -77 12 -114 5z"/>
<path d="M4898 5403 c12 -2 32 -2 45 0 12 2 2 4 -23 4 -25 0 -35 -2 -22 -4z"/>
<path d="M5265 5400 l180 -6 -205 -4 -205 -5 200 -2 c169 -3 202 -6 212 -19 6
-9 17 -14 24 -12 8 3 7 9 -5 20 -9 9 -16 21 -16 27 0 8 -58 10 -182 9 l-183
-2 180 -6z"/>
<path d="M4878 5383 c7 -3 16 -2 19 1 4 3 -2 6 -13 5 -11 0 -14 -3 -6 -6z"/>
<path d="M4940 5381 c-22 -7 -20 -9 20 -15 25 -4 72 -6 105 -4 55 4 53 4 -25
7 -67 3 -78 5 -50 11 34 7 34 7 5 8 -16 0 -41 -3 -55 -7z"/>
<path d="M4338 5363 c12 -2 32 -2 45 0 12 2 2 4 -23 4 -25 0 -35 -2 -22 -4z"/>
<path d="M4504 5350 c0 -11 1 -20 2 -20 1 0 9 3 18 6 13 5 13 8 1 20 -18 18
-21 18 -21 -6z"/>
<path d="M4405 5349 c-11 -17 -2 -18 19 -3 17 12 17 14 4 14 -9 0 -20 -5 -23
-11z"/>
<path d="M4465 5350 c-16 -7 -17 -9 -3 -9 9 -1 20 4 23 9 7 11 7 11 -20 0z"/>
<path d="M4125 5310 c-4 -12 -5 -24 -2 -27 3 -2 8 5 12 17 4 12 5 24 2 27 -3
2 -8 -5 -12 -17z"/>
<path d="M4430 5299 c0 -5 5 -7 10 -4 6 3 10 8 10 11 0 2 -4 4 -10 4 -5 0 -10
-5 -10 -11z"/>
<path d="M5465 5279 c-28 -6 -26 -7 13 -8 42 -1 53 3 30 11 -7 2 -26 1 -43 -3z"/>
<path d="M4348 5273 c7 -3 16 -2 19 1 4 3 -2 6 -13 5 -11 0 -14 -3 -6 -6z"/>
<path d="M2813 5178 c-1 -42 -1 -42 6 -8 l6 35 765 5 765 5 -771 3 -770 2 -1
-42z"/>
<path d="M3944 5019 c-14 -28 -23 -54 -20 -57 7 -6 4 -10 37 56 15 28 23 52
18 52 -5 0 -20 -23 -35 -51z"/>
<path d="M3906 4935 c-3 -8 -1 -15 4 -15 6 0 10 7 10 15 0 8 -2 15 -4 15 -2 0
-6 -7 -10 -15z"/>
<path d="M3143 4863 c185 -2 489 -2 675 0 185 1 33 2 -338 2 -371 0 -523 -1
-337 -2z"/>
<path d="M5758 4863 c195 -2 510 -2 700 0 191 1 32 2 -353 2 -385 0 -541 -1
-347 -2z"/>
<path d="M3799 4704 c-5 -15 -12 -31 -16 -37 -3 -6 -1 -7 4 -4 11 7 36 67 27
67 -2 0 -9 -12 -15 -26z"/>
<path d="M3765 4639 c-4 -6 -5 -12 -2 -15 2 -3 7 2 10 11 7 17 1 20 -8 4z"/>
<path d="M4941 2365 c-43 -39 -56 -71 -42 -108 20 -51 185 -74 232 -31 22 20
35 90 20 108 -17 20 -117 66 -145 66 -16 0 -42 -14 -65 -35z"/>
<path d="M5945 7840 c27 -12 43 -12 25 0 -8 5 -22 9 -30 9 -10 0 -8 -3 5 -9z"/>
<path d="M2248 7793 c6 -2 18 -2 25 0 6 3 1 5 -13 5 -14 0 -19 -2 -12 -5z"/>
<path d="M7960 7672 c0 -7 -4 -10 -10 -7 -15 9 -11 -17 5 -39 8 -11 15 -30 15
-43 0 -30 17 -30 23 0 3 18 5 16 6 -7 1 -35 -48 -85 -253 -256 -76 -63 -156
-137 -178 -165 -38 -46 -40 -48 -34 -20 l7 30 -20 -25 c-23 -28 -31 -64 -31
-130 0 -68 49 -159 129 -240 54 -54 77 -70 124 -84 127 -39 167 -19 482 242
149 124 163 129 214 86 29 -24 51 -25 51 -3 0 14 -149 199 -161 199 -6 0 -7
-6 -3 -12 5 -9 2 -9 -9 1 -21 17 -22 3 -1 -37 8 -18 13 -36 9 -42 -3 -6 1 -13
9 -16 9 -3 16 -9 16 -14 0 -9 -350 -297 -406 -334 -22 -14 -55 -31 -73 -36
-34 -10 -64 -4 -55 11 3 5 -1 9 -10 9 -31 0 -105 40 -141 76 -97 97 -99 208
-6 307 43 47 339 290 376 310 31 17 36 17 64 2 17 -8 31 -20 31 -25 0 -6 9
-10 20 -10 11 0 20 6 20 13 0 6 -41 64 -91 127 -106 135 -119 149 -119 132z"/>
<path d="M1620 7613 c-23 -57 -55 -103 -72 -103 -13 0 -78 -51 -78 -61 0 -14
33 -10 54 6 25 19 29 19 54 -3 19 -17 76 -168 102 -269 6 -23 18 -49 26 -58
28 -27 10 -45 -46 -45 -27 0 -50 5 -50 10 0 6 10 8 24 4 13 -3 26 -1 30 4 6
10 -140 32 -212 32 -88 0 -143 43 -116 90 16 30 18 50 3 50 -5 0 -22 -26 -36
-57 -35 -79 -77 -130 -135 -165 -46 -29 -59 -50 -38 -63 6 -3 17 1 26 9 33 33
80 33 390 -2 l161 -17 49 -39 c104 -83 154 -138 154 -171 0 -18 -8 -37 -20
-48 -25 -21 -26 -37 -2 -37 20 0 215 239 220 271 4 25 -15 25 -23 -1 -3 -10
-21 -28 -39 -40 -39 -23 -47 -25 -41 -7 3 6 -11 22 -31 35 -20 13 -69 50 -109
83 -59 48 -77 68 -90 107 -9 26 -21 57 -25 69 -5 11 -30 86 -57 165 -48 144
-56 198 -38 276 12 53 -11 37 -35 -25z m-160 -503 c24 -8 24 -8 -5 -9 -16 0
-37 4 -45 9 -12 8 -11 10 5 9 11 -1 31 -5 45 -9z m128 -17 c-10 -2 -28 -2 -40
0 -13 2 -5 4 17 4 22 1 32 -1 23 -4z"/>
<path d="M980 6702 c0 -4 6 -14 13 -22 6 -8 2 -6 -11 4 -28 24 -40 14 -22 -18
7 -14 10 -31 7 -40 -4 -10 -1 -13 9 -9 25 10 15 -6 -41 -62 -30 -31 -55 -63
-56 -73 0 -9 -3 -12 -5 -5 -3 7 0 21 6 32 21 40 1 21 -23 -21 -34 -59 -40
-113 -21 -184 26 -102 95 -154 204 -154 68 1 124 31 332 180 38 27 60 35 105
38 54 4 60 2 86 -26 37 -38 45 -94 23 -157 -13 -40 -13 -45 -1 -35 12 10 15
10 15 0 0 -22 -124 -137 -155 -143 -33 -6 -85 2 -85 13 0 4 12 5 28 3 19 -3
23 -2 12 5 -22 13 -80 23 -80 13 0 -4 -11 -6 -25 -3 -59 11 -17 -23 92 -74
114 -54 152 -62 144 -33 -14 53 -12 59 37 116 61 71 87 121 100 194 27 144
-73 279 -207 279 -23 0 -24 -1 -6 -13 16 -13 14 -15 -28 -25 -42 -11 -71 -29
-270 -167 -79 -55 -136 -79 -164 -68 -12 5 -12 7 -2 14 10 6 7 10 -11 17 -88
35 -107 149 -38 228 53 60 118 81 203 65 38 -7 53 -7 63 3 11 11 9 17 -16 35
-17 11 -33 21 -36 21 -3 0 -42 18 -87 40 -90 44 -89 43 -89 32z"/>
<path d="M8520 6665 c0 -3 10 -10 23 -15 20 -8 19 -9 -10 -9 -63 -2 -115 -34
-155 -96 l-19 -30 5 28 c3 15 1 27 -3 27 -16 0 -43 -84 -51 -162 -5 -46 -14
-124 -20 -174 -5 -50 -13 -100 -16 -110 -7 -19 -7 -19 14 0 12 11 22 15 22 9
0 -19 -46 -78 -70 -90 -29 -15 -113 -18 -91 -4 10 7 5 13 -23 26 -49 23 -82
66 -101 127 -19 65 -19 83 1 142 11 33 31 59 65 89 46 39 62 67 39 67 -6 0
-42 -25 -82 -55 -64 -49 -77 -55 -120 -55 -36 0 -48 -4 -48 -15 0 -8 8 -15 19
-15 26 0 39 -19 47 -70 19 -131 53 -209 110 -260 50 -44 93 -60 158 -60 67 0
93 9 139 50 54 47 75 115 92 298 16 184 26 224 63 253 21 17 36 20 72 16 54
-6 93 -45 111 -109 11 -43 8 -126 -6 -163 -7 -17 -5 -16 13 4 16 17 22 20 22
9 0 -23 -56 -74 -107 -98 -40 -19 -50 -40 -19 -40 25 0 236 105 236 117 0 7
-6 16 -14 20 -25 15 -66 85 -66 114 0 99 -45 181 -121 220 -35 17 -109 27
-109 14z"/>
<path d="M9215 6100 c-3 -5 -1 -10 4 -10 6 0 11 5 11 10 0 6 -2 10 -4 10 -3 0
-8 -4 -11 -10z"/>
<path d="M9195 6049 c-4 -6 -5 -12 -2 -15 2 -3 7 2 10 11 7 17 1 20 -8 4z"/>
<path d="M9244 6026 c-4 -9 -4 -20 0 -23 3 -4 12 -1 18 5 9 9 9 15 0 24 -9 9
-13 7 -18 -6z"/>
<path d="M408 5968 c-5 -93 -4 -118 5 -118 5 0 6 15 2 36 -3 20 -3 34 2 31 4
-3 9 15 11 39 1 25 -2 44 -8 44 -5 0 -11 -15 -12 -32z"/>
<path d="M450 5989 c0 -5 5 -7 10 -4 6 3 10 8 10 11 0 2 -4 4 -10 4 -5 0 -10
-5 -10 -11z"/>
<path d="M377 5950 c3 -11 7 -20 8 -20 1 0 5 9 8 20 3 12 0 20 -8 20 -8 0 -11
-8 -8 -20z"/>
<path d="M9281 5960 c0 -8 4 -22 9 -30 12 -18 12 -2 0 25 -6 13 -9 15 -9 5z"/>
<path d="M441 5884 c0 -11 3 -14 6 -6 3 7 2 16 -1 19 -3 4 -6 -2 -5 -13z"/>
<path d="M9288 5883 c6 -2 12 -11 12 -19 0 -8 4 -14 9 -14 5 0 7 9 4 20 -3 11
-13 20 -22 19 -10 0 -11 -2 -3 -6z"/>
<path d="M426 5845 c-3 -9 -6 -22 -5 -28 0 -7 5 -1 10 12 5 13 8 26 5 28 -2 2
-6 -3 -10 -12z"/>
<path d="M9272 5844 c-7 -8 -8 -14 -3 -14 10 0 25 19 20 25 -2 1 -10 -3 -17
-11z"/>
<path d="M9311 5824 c0 -11 3 -14 6 -6 3 7 2 16 -1 19 -3 4 -6 -2 -5 -13z"/>
<path d="M9286 5801 c-4 -7 -5 -15 -2 -18 9 -9 19 4 14 18 -4 11 -6 11 -12 0z"/>
<path d="M406 5755 c4 -8 8 -15 10 -15 2 0 4 7 4 15 0 8 -4 15 -10 15 -5 0 -7
-7 -4 -15z"/>
<path d="M7876 5713 c-3 -10 -2 -31 3 -48 9 -28 9 -27 10 18 1 49 -4 60 -13
30z"/>
<path d="M9262 5685 c0 -16 2 -22 5 -12 2 9 2 23 0 30 -3 6 -5 -1 -5 -18z"/>
<path d="M9240 5658 c0 -9 5 -20 10 -23 13 -8 13 5 0 25 -8 13 -10 13 -10 -2z"/>
<path d="M1753 5643 c-18 -7 -16 -23 2 -23 8 0 15 7 15 15 0 8 -1 15 -2 14 -2
0 -9 -3 -15 -6z"/>
<path d="M1801 5623 c-6 -13 -5 -22 5 -31 12 -11 14 -8 14 18 0 34 -5 38 -19
13z"/>
<path d="M1720 5588 c0 -7 5 -20 10 -28 8 -12 10 -9 10 13 0 15 -4 27 -10 27
-5 0 -10 -6 -10 -12z"/>
<path d="M1756 5587 c3 -10 9 -15 12 -12 3 3 0 11 -7 18 -10 9 -11 8 -5 -6z"/>
<path d="M7931 5524 c0 -11 3 -14 6 -6 3 7 2 16 -1 19 -3 4 -6 -2 -5 -13z"/>
<path d="M1795 5519 c-4 -6 -5 -12 -2 -15 2 -3 7 2 10 11 7 17 1 20 -8 4z"/>
<path d="M240 5458 c0 -21 2 -38 4 -38 9 0 12 50 5 62 -6 8 -9 -1 -9 -24z"/>
<path d="M1782 5465 c0 -16 2 -22 5 -12 2 9 2 23 0 30 -3 6 -5 -1 -5 -18z"/>
<path d="M9271 5464 c0 -11 3 -14 6 -6 3 7 2 16 -1 19 -3 4 -6 -2 -5 -13z"/>
<path d="M7941 5454 c0 -11 3 -14 6 -6 3 7 2 16 -1 19 -3 4 -6 -2 -5 -13z"/>
<path d="M970 5423 c0 -16 -14 -55 -30 -86 -23 -42 -39 -58 -63 -66 -57 -19
-114 -24 -135 -12 -43 23 -30 -10 28 -70 54 -57 59 -66 55 -98 -14 -113 -14
-130 -2 -134 7 -2 42 11 78 29 37 19 75 34 86 34 11 0 47 -14 81 -31 34 -17
67 -27 73 -23 10 6 6 111 -7 156 -3 10 17 42 51 82 31 36 53 70 50 76 -3 5
-19 10 -35 10 -16 0 -52 5 -79 11 -52 11 -62 21 -112 113 -22 41 -39 44 -39 9z"/>
<path d="M7905 5420 c-3 -5 -1 -10 4 -10 6 0 11 5 11 10 0 6 -2 10 -4 10 -3 0
-8 -4 -11 -10z"/>
<path d="M9282 5410 c0 -14 2 -19 5 -12 2 6 2 18 0 25 -3 6 -5 1 -5 -13z"/>
<path d="M941 5407 c-6 -8 -18 -31 -27 -53 -13 -33 -13 -37 -1 -24 14 14 50
90 43 90 -2 0 -9 -6 -15 -13z"/>
<path d="M8629 5415 c-1 -5 -1 -18 0 -27 1 -9 -12 -42 -30 -73 -24 -42 -42
-61 -68 -72 -50 -22 -104 -27 -129 -14 -43 23 -33 -10 20 -65 68 -71 70 -75
58 -126 -12 -53 -13 -105 -2 -112 5 -3 40 10 78 29 38 19 74 35 80 35 7 0 44
-14 84 -31 89 -37 97 -33 81 47 -18 92 -15 104 39 164 27 30 49 62 47 70 -1
10 -20 17 -57 21 -82 10 -107 23 -138 75 -34 58 -61 92 -63 79z"/>
<path d="M232 5385 c0 -16 2 -22 5 -12 2 9 2 23 0 30 -3 6 -5 -1 -5 -18z"/>
<path d="M8582 5351 c-24 -42 -27 -56 -12 -46 12 8 44 74 38 80 -2 3 -14 -13
-26 -34z"/>
<path d="M9287 5349 c4 -13 8 -18 11 -10 2 7 -1 18 -6 23 -8 8 -9 4 -5 -13z"/>
<path d="M227 5343 c-4 -3 -6 -25 -6 -47 l2 -41 7 45 c8 48 7 54 -3 43z"/>
<path d="M7870 5266 c0 -8 5 -18 10 -21 6 -3 10 3 10 14 0 12 -4 21 -10 21 -5
0 -10 -6 -10 -14z"/>
<path d="M9303 5240 c0 -25 2 -35 4 -22 2 12 2 32 0 45 -2 12 -4 2 -4 -23z"/>
<path d="M213 5190 c0 -25 2 -35 4 -22 2 12 2 32 0 45 -2 12 -4 2 -4 -23z"/>
<path d="M1616 5204 c-4 -9 -4 -19 -1 -22 2 -3 7 3 11 12 4 9 4 19 1 22 -2 3
-7 -3 -11 -12z"/>
<path d="M7880 5213 c0 -4 5 -15 10 -23 8 -13 10 -13 10 2 0 9 -4 20 -10 23
-5 3 -10 3 -10 -2z"/>
<path d="M7892 5145 c0 -16 2 -22 5 -12 2 9 2 23 0 30 -3 6 -5 -1 -5 -18z"/>
<path d="M1611 5134 c0 -11 3 -14 6 -6 3 7 2 16 -1 19 -3 4 -6 -2 -5 -13z"/>
<path d="M203 5080 c0 -25 2 -35 4 -22 2 12 2 32 0 45 -2 12 -4 2 -4 -23z"/>
<path d="M9313 5080 c0 -25 2 -35 4 -22 2 12 2 32 0 45 -2 12 -4 2 -4 -23z"/>
<path d="M7903 5070 c0 -25 2 -35 4 -22 2 12 2 32 0 45 -2 12 -4 2 -4 -23z"/>
<path d="M1603 5035 c0 -27 2 -38 4 -22 2 15 2 37 0 50 -2 12 -4 0 -4 -28z"/>
<path d="M9324 4850 c0 -74 1 -105 3 -67 2 37 2 97 0 135 -2 37 -3 6 -3 -68z"/>
<path d="M7906 4957 c3 -10 9 -15 12 -12 3 3 0 11 -7 18 -10 9 -11 8 -5 -6z"/>
<path d="M1593 4915 c0 -22 2 -30 4 -17 2 12 2 30 0 40 -3 9 -5 -1 -4 -23z"/>
<path d="M9322 4665 c0 -16 2 -22 5 -12 2 9 2 23 0 30 -3 6 -5 -1 -5 -18z"/>
<path d="M1591 4624 c0 -11 3 -14 6 -6 3 7 2 16 -1 19 -3 4 -6 -2 -5 -13z"/>
<path d="M203 4515 c0 -22 2 -30 4 -17 2 12 2 30 0 40 -3 9 -5 -1 -4 -23z"/>
<path d="M1008 4483 c7 -3 16 -2 19 1 4 3 -2 6 -13 5 -11 0 -14 -3 -6 -6z"/>
<path d="M1053 4484 c3 -4 21 -10 39 -14 28 -7 24 -8 -27 -9 -69 -1 -158 -22
-213 -50 -54 -28 -130 -98 -163 -150 -30 -48 -40 -41 -14 9 23 45 3 36 -23
-10 -47 -82 -43 -251 8 -350 28 -54 84 -110 152 -148 65 -37 98 -41 98 -12 0
13 -14 27 -42 41 -73 37 -106 69 -135 127 -39 80 -39 185 -2 257 56 110 205
170 403 163 100 -3 116 -6 158 -32 64 -37 93 -75 113 -143 16 -56 16 -131 0
-193 -6 -24 -6 -24 10 3 21 36 26 34 14 -5 -16 -56 -85 -111 -153 -122 -22 -3
-32 -21 -17 -30 13 -8 234 42 262 60 18 11 8 35 -19 45 l-28 10 0 132 c1 123
-1 136 -26 190 -52 111 -148 190 -273 223 -51 14 -133 19 -122 8z"/>
<path d="M8266 4436 c4 -11 1 -16 -10 -16 -9 0 -16 5 -16 11 0 8 -4 8 -15 -1
-8 -6 -14 -24 -13 -38 0 -15 -9 -72 -20 -127 -12 -55 -31 -158 -43 -230 -12
-71 -24 -143 -27 -158 -4 -24 -1 -28 14 -25 10 2 21 16 26 33 15 59 35 61 233
29 17 -2 86 -13 155 -24 342 -54 360 -60 360 -131 0 -27 4 -39 14 -39 21 0 23
6 40 106 12 73 63 363 83 476 5 25 -1 30 -87 73 -50 25 -89 41 -85 35 5 -9 1
-10 -14 -5 -34 11 -24 -7 32 -56 72 -63 81 -95 62 -219 -17 -113 -18 -143 -5
-135 6 4 7 -1 3 -12 -13 -36 -25 -43 -77 -42 -47 2 -48 2 -16 8 46 9 24 16
-90 31 -96 12 -168 29 -176 41 -9 15 16 173 34 206 15 31 64 59 82 48 13 -8
40 6 40 20 0 20 -35 26 -202 40 -31 3 -61 6 -65 7 -4 2 -10 -1 -11 -7 -2 -5
13 -20 34 -31 55 -31 59 -47 40 -160 -12 -67 -14 -100 -7 -102 17 -6 13 -39
-5 -46 -29 -11 -52 -6 -50 11 1 14 -18 20 -109 35 -168 27 -169 28 -141 138 8
30 19 81 26 112 13 65 52 108 99 108 30 0 70 24 55 33 -5 3 -42 9 -82 12 -65
7 -72 6 -66 -9z m299 -116 c13 -6 15 -9 5 -9 -8 0 -22 4 -30 9 -18 12 -2 12
25 0z m-102 -317 c-7 -2 -19 -2 -25 0 -7 3 -2 5 12 5 14 0 19 -2 13 -5z m250
-40 c-7 -2 -21 -2 -30 0 -10 3 -4 5 12 5 17 0 24 -2 18 -5z"/>
<path d="M1592 4340 c0 -14 2 -19 5 -12 2 6 2 18 0 25 -3 6 -5 1 -5 -13z"/>
<path d="M191 4304 c0 -11 3 -14 6 -6 3 7 2 16 -1 19 -3 4 -6 -2 -5 -13z"/>
<path d="M211 4164 c0 -11 3 -14 6 -6 3 7 2 16 -1 19 -3 4 -6 -2 -5 -13z"/>
<path d="M221 4064 c0 -11 3 -14 6 -6 3 7 2 16 -1 19 -3 4 -6 -2 -5 -13z"/>
<path d="M8090 3800 c0 -6 7 -13 15 -16 8 -4 15 -17 15 -31 0 -15 4 -22 11
-17 8 4 8 1 1 -13 -12 -22 -42 -49 -51 -46 -3 0 -5 -3 -3 -9 1 -5 -7 -21 -18
-35 -11 -14 -20 -22 -20 -17 -1 5 -10 -7 -20 -28 -31 -59 -45 -168 -30 -236
38 -174 197 -316 383 -342 65 -9 86 -8 151 8 164 43 263 140 322 320 27 83 34
245 12 274 -7 9 -71 33 -141 54 -163 48 -187 62 -187 109 0 19 -4 35 -10 35
-5 0 -10 -5 -10 -11 0 -6 -7 -17 -15 -25 -8 -8 -19 -34 -25 -57 -6 -23 -23
-72 -37 -110 -14 -38 -22 -75 -18 -85 6 -14 12 -11 38 21 36 42 73 48 149 23
24 -8 76 -24 116 -37 94 -29 100 -41 81 -144 -10 -49 -12 -76 -5 -78 27 -9
-84 -134 -142 -159 -56 -25 -154 -39 -212 -30 l-45 7 45 5 c43 6 44 6 15 13
-16 4 -59 14 -95 22 -135 32 -250 114 -290 207 -41 95 -17 210 58 291 36 38
67 54 127 62 122 18 123 41 4 66 -109 23 -125 24 -109 4 7 -8 8 -15 2 -15 -5
0 -15 7 -22 15 -14 17 -40 20 -40 5z m407 -92 c-3 -8 -6 -5 -6 6 -1 11 2 17 5
13 3 -3 4 -12 1 -19z m-13 -63 c-4 -8 -11 -15 -16 -15 -6 0 -5 6 2 15 7 8 14
15 16 15 2 0 1 -7 -2 -15z"/>
<path d="M1285 3776 c19 -15 19 -15 -16 -16 -155 -1 -324 -92 -389 -209 -29
-50 -46 -54 -25 -6 24 58 -5 27 -32 -33 -51 -116 -22 -276 70 -382 161 -186
468 -189 646 -7 141 146 156 355 36 513 -50 65 -67 79 -142 116 -71 35 -185
54 -148 24z m185 -146 c46 -24 74 -55 99 -110 25 -54 27 -138 5 -183 l-15 -32
27 30 c26 28 26 28 19 5 -39 -128 -291 -262 -484 -259 -49 1 -58 3 -36 8 29 7
28 8 -27 24 -75 23 -136 71 -167 132 -86 167 64 334 359 401 68 15 173 8 220
-16z"/>
<path d="M1680 3232 c0 -7 -4 -11 -9 -7 -5 3 -12 1 -15 -4 -4 -5 -2 -12 3 -15
5 -4 12 -24 16 -46 6 -34 9 -39 21 -29 17 14 18 2 1 -28 -16 -29 -51 -55 -122
-90 -33 -16 -140 -80 -237 -141 -236 -148 -236 -148 -257 -127 -15 15 -14 16
4 9 15 -5 11 3 -14 29 -30 32 -71 50 -71 31 0 -3 30 -54 66 -115 47 -76 72
-109 85 -109 23 0 24 12 4 50 -12 22 -12 34 -4 52 11 24 22 31 299 203 19 12
54 34 77 48 53 34 67 34 61 2 -6 -27 1 -32 20 -13 21 21 14 -7 -11 -43 -13
-19 -26 -41 -30 -49 -3 -8 -64 -100 -134 -205 -91 -135 -134 -190 -147 -190
-27 0 -46 -33 -26 -45 8 -5 22 -8 30 -5 8 2 74 11 145 20 72 8 144 18 160 20
17 3 73 9 125 15 52 6 117 15 144 21 45 9 51 7 69 -12 l21 -22 -25 -19 c-27
-21 -226 -148 -330 -209 -36 -22 -81 -44 -98 -49 -35 -10 -72 -3 -50 10 8 6 2
17 -22 38 -19 17 -36 26 -37 21 -2 -5 -8 -7 -13 -3 -21 13 -4 -22 66 -135 41
-67 75 -125 75 -130 0 -5 7 -12 15 -15 22 -8 30 19 15 53 -23 56 -15 64 165
176 315 195 446 283 452 301 6 18 -55 94 -71 88 -8 -3 -13 -11 -10 -19 6 -16
-32 -24 -152 -30 -49 -3 -150 -14 -224 -25 -74 -10 -162 -21 -194 -25 -55 -5
-58 -4 -45 12 8 9 9 14 2 10 -24 -15 -22 13 4 57 16 25 69 107 118 181 187
281 205 310 205 326 0 9 -20 47 -45 85 -63 96 -74 111 -75 96z"/>
<path d="M7923 3176 c3 -7 -8 -27 -25 -42 l-30 -29 7 25 c7 24 6 24 -8 5 -8
-10 -12 -26 -9 -34 3 -9 1 -12 -6 -7 -8 4 -10 2 -6 -8 8 -21 -15 -59 -32 -52
-9 3 -12 2 -9 -5 8 -12 -13 -69 -25 -69 -4 0 -10 -9 -13 -21 -3 -12 -10 -18
-15 -15 -6 3 -13 -11 -17 -32 -8 -51 -44 -112 -77 -131 -35 -21 -81 -78 -73
-91 10 -17 25 -11 52 20 13 17 34 30 45 30 34 0 546 -286 596 -332 26 -26 27
-30 6 -75 -20 -40 -7 -64 18 -36 8 10 59 90 113 178 53 88 113 185 133 215 20
30 45 72 56 92 l19 36 -59 71 c-32 38 -65 70 -72 70 -8 1 -10 -4 -6 -11 5 -9
2 -9 -9 1 -15 12 -17 11 -17 -2 0 -9 4 -18 9 -21 4 -3 19 -33 31 -66 21 -55
21 -64 9 -108 -7 -26 -12 -50 -11 -54 1 -5 -2 -8 -8 -8 -5 0 -6 -7 -3 -17 5
-12 3 -14 -7 -8 -9 6 -11 4 -5 -5 4 -7 4 -15 -1 -19 -5 -3 -17 -19 -26 -36
-10 -16 -22 -29 -27 -28 -6 2 -8 -3 -5 -10 7 -19 -34 -67 -56 -67 -12 0 -17 5
-14 14 3 9 -38 37 -127 87 -72 41 -133 79 -135 85 -7 16 83 160 118 189 22 19
37 24 52 20 33 -11 79 -11 83 1 2 5 -46 38 -107 72 -113 64 -126 70 -114 51 4
-8 0 -8 -15 0 -17 10 -21 9 -21 -4 0 -9 7 -18 15 -22 9 -3 22 -18 30 -33 14
-27 13 -41 -10 -105 -6 -16 -5 -17 4 -5 6 8 11 10 11 5 0 -18 -31 -56 -41 -50
-5 3 -6 0 -3 -8 3 -8 -6 -31 -20 -52 -14 -21 -26 -42 -26 -46 0 -5 -9 -9 -20
-9 -12 0 -17 5 -14 14 4 9 -34 36 -120 86 -69 39 -126 75 -126 80 0 16 131
216 157 238 21 19 34 23 62 18 79 -11 86 -11 86 3 0 15 -108 80 -134 81 -7 0
-11 -6 -8 -14z"/>
<path d="M1539 2855 c-9 -19 -12 -32 -8 -29 13 8 41 64 32 64 -5 -1 -15 -16
-24 -35z"/>
<path d="M7691 2849 c-13 -22 -21 -43 -18 -46 3 -3 15 14 27 37 28 55 20 62
-9 9z"/>
<path d="M1465 2738 l-16 -33 20 25 c20 24 26 40 16 40 -2 0 -12 -15 -20 -32z"/>
<path d="M1425 2679 c-4 -6 -5 -12 -2 -15 2 -3 7 2 10 11 7 17 1 20 -8 4z"/>
<path d="M1391 2632 c-17 -31 -13 -40 5 -14 9 13 14 26 11 29 -3 2 -10 -4 -16
-15z"/>
<path d="M1325 2530 c-10 -11 -16 -22 -13 -25 3 -3 13 6 22 20 20 30 16 32 -9
5z"/>
<path d="M7412 2448 c-60 -92 -83 -119 -111 -132 -53 -24 -101 -58 -101 -72 0
-20 17 -17 47 6 50 39 67 32 196 -83 40 -35 115 -102 167 -148 179 -158 210
-192 210 -226 0 -21 -7 -37 -21 -47 -21 -14 -19 -36 3 -36 6 0 36 26 67 59 31
32 127 133 215 225 l158 167 -53 92 c-60 106 -60 106 -66 89 -3 -6 -9 -10 -14
-6 -13 8 -11 -7 6 -56 18 -50 19 -98 5 -136 -9 -24 -9 -25 5 -14 28 23 17 -10
-16 -49 -104 -121 -214 -215 -195 -166 3 8 -11 25 -32 41 -20 15 -39 31 -42
34 -3 3 -70 63 -150 134 -292 259 -296 265 -244 333 17 23 23 38 16 45 -6 6
-23 -12 -50 -54z"/>
<path d="M2196 2424 c4 -11 8 -40 9 -66 0 -44 1 -46 18 -31 9 9 17 12 17 7 0
-23 -54 -85 -252 -287 -198 -202 -215 -217 -248 -217 -35 0 -83 20 -50 20 11
0 10 5 -6 20 -15 15 -26 19 -42 13 -21 -8 -13 -18 97 -127 106 -105 141 -128
141 -95 0 5 -10 23 -21 39 -14 19 -20 36 -16 52 4 13 49 68 102 123 l95 100
41 -47 c131 -152 273 -174 386 -61 79 79 93 155 46 251 -32 64 -262 306 -302
317 -21 6 -23 5 -15 -11z m157 -214 c19 -16 40 -43 47 -60 12 -29 10 -96 -4
-135 -6 -17 -5 -17 10 3 27 36 36 25 15 -16 -22 -43 -80 -98 -118 -113 -13 -5
-43 -9 -66 -8 -29 0 -36 3 -23 8 16 6 10 12 -36 38 -48 27 -88 68 -88 89 0 10
212 224 222 224 4 0 23 -13 41 -30z"/>
<path d="M6970 2038 c-76 -86 -110 -116 -141 -123 -25 -6 -82 -33 -108 -51 -1
-2 0 -7 4 -13 4 -7 20 -4 46 9 62 32 52 42 294 -265 87 -110 167 -214 178
-232 22 -38 16 -65 -18 -87 -14 -9 -25 -21 -25 -26 0 -21 131 57 275 164 83
62 159 119 171 127 11 8 36 27 54 42 l33 28 -39 97 c-21 53 -39 99 -40 101 -2
1 -9 -3 -17 -10 -11 -10 -13 -30 -9 -75 2 -35 0 -77 -7 -95 -11 -32 -11 -32 9
-14 11 10 20 15 20 11 0 -22 -31 -53 -118 -119 -119 -91 -152 -110 -152 -88 0
4 -19 28 -42 53 -24 24 -86 99 -138 167 -52 68 -114 146 -138 175 -58 69 -102
136 -102 156 0 9 16 31 35 50 35 34 46 61 23 59 -7 -1 -29 -19 -48 -41z"/>
<path d="M2575 2033 c12 -28 8 -46 -23 -112 -16 -33 -26 -61 -23 -61 9 0 48
61 61 94 6 16 13 26 17 23 10 -11 -47 -119 -96 -182 -59 -76 -131 -185 -172
-264 -18 -34 -34 -60 -36 -58 -9 9 54 140 93 195 9 12 12 22 6 22 -5 0 -12 -8
-16 -17 -3 -10 -19 -38 -36 -63 -87 -131 -107 -209 -75 -301 40 -113 204 -219
339 -219 117 1 177 56 353 325 69 104 135 198 147 207 11 10 39 24 60 31 l40
13 -65 39 c-35 21 -72 45 -81 53 -17 15 -78 27 -78 16 0 -4 14 -22 31 -41 30
-35 31 -43 13 -100 -5 -17 -4 -17 10 1 35 43 13 -5 -39 -85 -30 -46 -82 -128
-116 -182 -119 -186 -183 -239 -290 -236 -24 1 -34 4 -21 6 26 5 20 23 -9 23
-32 0 -114 46 -145 82 -90 103 -71 166 154 503 l107 160 40 -1 c22 -1 50 -4
61 -8 15 -5 23 -3 27 7 4 11 -21 31 -89 72 -52 32 -97 61 -100 66 -3 5 -17 9
-31 9 -20 0 -24 -3 -18 -17z"/>
<path d="M2445 1759 c-4 -6 -5 -12 -2 -15 2 -3 7 2 10 11 7 17 1 20 -8 4z"/>
<path d="M6605 1762 c14 -7 1 -10 -50 -14 -126 -10 -218 -70 -277 -179 -34
-65 -48 -73 -24 -14 21 49 20 53 -4 22 -38 -48 -62 -144 -57 -228 4 -63 12
-88 45 -155 84 -166 211 -248 381 -248 210 0 371 134 402 334 19 121 -5 209
-92 336 -57 84 -169 145 -274 151 -45 2 -63 0 -50 -5z m35 -73 c70 -31 151
-125 211 -245 l53 -104 2 -109 2 -110 -36 -42 c-54 -63 -185 -114 -207 -80 -3
5 -19 13 -37 16 -39 9 -117 56 -143 87 -123 143 -188 304 -171 420 21 143 190
229 326 167z"/>
<path d="M6881 1117 c-13 -21 -12 -21 5 -5 10 10 16 20 13 22 -3 3 -11 -5 -18
-17z"/>
<path d="M3243 1626 c3 -8 -4 -21 -18 -30 -22 -14 -23 -14 -18 7 5 22 5 22
-10 2 -9 -11 -17 -24 -17 -29 0 -5 -10 -28 -22 -53 -15 -31 -19 -46 -11 -54 8
-8 20 1 43 30 42 52 80 65 140 47 109 -33 114 -41 79 -128 -12 -29 -34 -89
-49 -133 -16 -44 -58 -156 -93 -248 -36 -94 -58 -162 -49 -155 8 7 21 26 28
43 7 16 13 25 14 18 0 -18 -40 -107 -53 -115 -16 -10 -87 -10 -87 0 0 4 -11 8
-25 8 -14 1 -25 -4 -25 -11 0 -14 296 -129 311 -120 17 11 9 35 -14 44 -13 5
-29 17 -37 26 -19 23 -5 71 108 365 120 315 122 320 136 320 23 0 119 -40 138
-57 31 -28 48 -68 45 -109 -1 -20 3 -39 9 -41 12 -4 29 29 55 112 15 50 16 62
5 73 -7 8 -101 43 -207 78 -107 36 -203 69 -214 73 -40 18 -142 51 -155 51 -6
0 -10 -6 -7 -14z m191 -235 c-9 -23 -19 -39 -22 -37 -3 3 3 24 13 46 24 52 31
45 9 -9z m-69 -186 c-8 -21 -18 -36 -21 -33 -2 3 3 22 12 42 23 47 30 39 9 -9z
m-45 -115 c-6 -12 -14 -19 -17 -17 -2 3 1 15 7 27 6 12 14 19 17 17 2 -3 -1
-15 -7 -27z m-39 -97 c-12 -20 -14 -14 -5 12 4 9 9 14 11 11 3 -2 0 -13 -6
-23z"/>
<path d="M3002 1583 c-26 -38 -34 -53 -29 -53 2 0 16 18 31 40 29 45 28 56 -2
13z"/>
<path d="M1710 1576 c0 -2 8 -10 18 -17 15 -13 16 -12 3 4 -13 16 -21 21 -21
13z"/>
<path d="M6059 1553 c-1 -5 -1 -11 0 -15 0 -5 -4 -8 -10 -8 -8 0 -8 -5 1 -15
19 -22 -5 -45 -46 -45 -24 0 -34 5 -34 15 0 17 -35 21 -45 5 -3 -5 -27 -10
-53 -10 -60 0 -174 -53 -218 -101 -42 -47 -82 -103 -94 -131 -13 -33 -13 2 0
39 10 27 9 27 -6 8 -33 -41 -47 -92 -51 -185 -4 -78 -1 -107 16 -160 38 -116
108 -198 218 -254 131 -66 331 -32 448 75 62 57 128 190 106 212 -9 9 -32 -31
-46 -81 -4 -12 -10 -20 -15 -17 -5 3 -11 -8 -15 -24 -14 -63 -136 -137 -241
-146 -47 -4 -55 -3 -40 7 17 10 13 13 -34 25 -31 8 -76 30 -107 54 -45 33 -60
54 -97 132 -51 107 -70 194 -61 275 14 116 65 185 166 223 110 40 219 13 297
-76 39 -45 56 -53 66 -36 4 5 -12 53 -35 108 -22 54 -43 106 -46 116 -5 17
-22 24 -24 10z"/>
<path d="M1750 1541 c0 -6 4 -13 10 -16 6 -3 7 1 4 9 -7 18 -14 21 -14 7z"/>
<path d="M3898 1397 c18 -18 32 -42 32 -53 0 -22 -30 -158 -55 -249 -9 -33
-34 -130 -56 -215 -22 -85 -42 -164 -45 -174 -5 -15 -3 -18 10 -13 23 9 20
-16 -4 -38 -16 -14 -31 -17 -80 -12 -53 4 -75 -2 -52 -16 4 -3 111 -26 237
-52 127 -26 256 -53 288 -60 33 -8 65 -11 72 -9 13 5 28 26 93 128 34 53 37
62 23 71 -6 3 -15 -5 -22 -17 -22 -42 -74 -100 -101 -114 -37 -19 -122 -19
-115 0 4 10 -11 17 -56 25 -97 18 -146 32 -158 47 -9 11 -2 51 26 169 44 177
29 165 160 140 107 -20 129 -37 133 -104 3 -51 20 -68 39 -38 13 21 63 220 63
252 l0 30 -20 -25 c-10 -14 -17 -26 -15 -29 6 -5 -22 -56 -38 -70 -20 -16 -70
-4 -63 15 4 10 -2 14 -19 14 -27 0 -104 17 -147 33 -16 5 -28 17 -27 26 0 9
15 75 33 146 l34 130 38 -3 c21 -2 82 -14 137 -27 120 -28 145 -47 149 -114 4
-57 28 -68 45 -19 21 58 27 133 12 145 -13 10 -111 32 -379 84 -52 10 -106 21
-120 25 l-25 6 25 -21 c32 -26 14 -27 -25 -1 -48 32 -63 24 -27 -13z"/>
<path d="M2868 1380 c-9 -17 -14 -30 -10 -30 4 0 15 14 24 30 9 17 14 30 10
30 -4 0 -15 -14 -24 -30z"/>
<path d="M4576 1300 c7 -7 52 -14 105 -16 51 -3 95 -7 98 -9 12 -13 -170 -3
-212 11 -47 16 -116 16 -72 0 72 -26 70 -23 68 -132 -1 -54 -9 -148 -17 -209
-17 -123 -43 -302 -52 -354 -4 -28 -3 -33 10 -28 21 8 20 -6 -1 -32 -14 -17
-30 -22 -75 -22 -40 -1 -58 -6 -58 -14 0 -14 125 -27 275 -29 64 -1 80 2 80
14 0 9 -14 17 -39 21 -47 8 -56 21 -56 84 0 52 33 252 44 262 3 3 20 2 38 -3
28 -8 42 -29 135 -199 57 -104 109 -193 116 -197 35 -21 226 -16 228 7 1 6
-21 18 -47 27 -48 17 -91 56 -118 108 -7 14 -41 73 -74 132 -34 59 -63 113
-64 119 -2 5 17 17 42 26 70 24 129 72 152 123 32 76 26 149 -18 207 -48 63
-128 86 -339 98 -55 4 -113 9 -130 12 -23 4 -27 2 -19 -7z m311 -97 c23 -15
63 -88 63 -114 0 -8 -6 -38 -14 -67 -13 -51 -13 -52 5 -36 25 22 24 10 -1 -31
-24 -40 -120 -85 -178 -85 -41 0 -64 14 -40 23 7 3 3 6 -9 6 -12 1 -24 5 -28
11 -6 9 21 269 31 303 5 16 13 17 77 11 40 -4 82 -13 94 -21z"/>
</g>
</svg>
